<svg width="28" height="36" viewBox="0 0 28 36" fill="none" xmlns="http://www.w3.org/2000/svg">
<path d="M5.70221 7.47326C5.75172 7.63144 5.73637 7.8028 5.65954 7.94967C5.58271 8.09653 5.4507 8.20686 5.29253 8.25639L4.09979 8.62982L6.4987 16.2947V5.91357L5.3287 6.27982L5.70221 7.47326Z" fill="#0F4471"/>
<path d="M18.7023 34.166H11.5C11.3342 34.166 11.1753 34.1002 11.0581 33.983C10.9408 33.8657 10.875 33.7068 10.875 33.541V32.291H9.625C9.45924 32.291 9.30027 32.2252 9.18306 32.108C9.06585 31.9907 9 31.8318 9 31.666V4.16602C9 4.00026 9.06585 3.84128 9.18306 3.72407C9.30027 3.60686 9.45924 3.54102 9.625 3.54102H10.875V2.29102C10.875 2.12526 10.9408 1.96628 11.0581 1.84907C11.1753 1.73186 11.3342 1.66602 11.5 1.66602H19C19.1658 1.66602 19.3247 1.73186 19.4419 1.84907C19.5592 1.96628 19.625 2.12526 19.625 2.29102V3.54102H20.875C21.0408 3.54102 21.1997 3.60686 21.3169 3.72407C21.4342 3.84128 21.5 4.00026 21.5 4.16602V24.9739L21.8195 25.416H22.75V0.416016H7.75V35.416H20.0542C19.55 35.0613 19.0953 34.641 18.7023 34.166Z" fill="#0F4471"/>
<path d="M6.50081 24.6656V20.4795L2.72229 8.40671C2.69777 8.32838 2.68891 8.24599 2.69623 8.16424C2.70354 8.08249 2.72689 8.00299 2.76493 7.93026C2.80297 7.85753 2.85497 7.79301 2.91795 7.74038C2.98093 7.68775 3.05366 7.64803 3.13198 7.62351L4.32472 7.25015L3.9512 6.05671C3.9017 5.89852 3.91706 5.72715 3.9939 5.58029C4.07075 5.43342 4.20278 5.3231 4.36097 5.27359L6.50081 4.60359V3.29398L0.408936 5.20085L6.50081 24.6656Z" fill="#0F4471"/>
<path d="M18.3633 20.6329L20.25 23.2441V4.79102H19C18.8342 4.79102 18.6753 4.72517 18.5581 4.60796C18.4408 4.49075 18.375 4.33178 18.375 4.16602V2.91602H12.125V4.16602C12.125 4.33178 12.0592 4.49075 11.9419 4.60796C11.8247 4.72517 11.6658 4.79102 11.5 4.79102H10.25V31.041H11.5C11.6658 31.041 11.8247 31.1069 11.9419 31.2241C12.0592 31.3413 12.125 31.5003 12.125 31.666V32.916H17.878C17.4091 32.002 17.1525 30.994 17.1272 29.9671L13.1904 24.1405C12.8738 23.6708 12.6905 23.124 12.6599 22.5584C12.6293 21.9928 12.7526 21.4294 13.0166 20.9283C12.4126 20.481 11.9569 19.8626 11.7085 19.1533C11.4602 18.4439 11.4306 17.6763 11.6238 16.95C11.8169 16.2236 12.2237 15.572 12.7915 15.0797C13.3594 14.5873 14.062 14.2769 14.8084 14.1886C15.5548 14.1004 16.3105 14.2383 16.9775 14.5847C17.6445 14.931 18.1921 15.4697 18.5493 16.131C18.9065 16.7923 19.0568 17.5456 18.9808 18.2933C18.9047 19.041 18.6058 19.7486 18.1228 20.3245C18.2093 20.4222 18.2896 20.5252 18.3633 20.6329Z" fill="#0F4471"/>
<path d="M23.9987 13.541V26.041C23.9987 26.2068 23.9329 26.3657 23.8157 26.483C23.6985 26.6002 23.5395 26.666 23.3737 26.666H21.4987C21.3998 26.666 21.3024 26.6425 21.2143 26.5975C21.1262 26.5525 21.0501 26.4873 20.9922 26.4071L17.3433 21.3574C17.3395 21.3521 17.3355 21.3467 17.332 21.3413C17.196 21.1331 17.0199 20.9541 16.8141 20.8146C16.6082 20.6751 16.3766 20.5779 16.1328 20.5288C15.889 20.4796 15.6379 20.4794 15.3941 20.5283C15.1502 20.5771 14.9185 20.674 14.7125 20.8132C14.5064 20.9525 14.3301 21.1313 14.1938 21.3393C14.0576 21.5474 13.964 21.7804 13.9187 22.025C13.8734 22.2695 13.8771 22.5206 13.9297 22.7636C13.9824 23.0067 14.0828 23.2368 14.2253 23.4407L18.2795 29.4411C18.3723 29.5783 18.4067 29.7467 18.3754 29.9094C18.408 31.3798 19.0146 32.7791 20.0654 33.8081C21.1163 34.8371 22.528 35.4142 23.9987 35.416H27.7488V21.041C27.7484 20.7333 27.6727 20.4303 27.5282 20.1587L23.9987 13.541Z" fill="#0F4471"/>
<path d="M12.75 17.9161C12.75 18.3176 12.8467 18.7131 13.032 19.0693C13.2174 19.4254 13.4858 19.7316 13.8146 19.962C13.884 19.906 13.9552 19.8522 14.0302 19.8017C14.4811 19.4976 15.0036 19.3163 15.546 19.2758C16.0884 19.2354 16.6319 19.3372 17.123 19.5711C17.391 19.2679 17.5814 18.9042 17.6779 18.5112C17.7744 18.1182 17.774 17.7077 17.6768 17.3148C17.5797 16.922 17.3886 16.5586 17.12 16.2559C16.8514 15.9532 16.5134 15.7203 16.1349 15.577C15.7564 15.4338 15.3488 15.3846 14.9471 15.4336C14.5455 15.4826 14.1617 15.6284 13.8288 15.8585C13.4958 16.0885 13.2237 16.396 13.0358 16.7544C12.8479 17.1128 12.7499 17.5114 12.75 17.9161V17.9161Z" fill="#0F4471"/>
</svg>
