<svg width="12" height="26" viewBox="0 0 12 26" xmlns="http://www.w3.org/2000/svg">
<path d="M11.4017 22.9586L11.0384 24.3983C9.94854 24.8153 9.07796 25.1327 8.42969 25.351C7.78073 25.5699 7.02666 25.6788 6.16751 25.6788C4.84813 25.6788 3.8219 25.3654 3.08997 24.7431C2.35805 24.1182 1.99197 23.3264 1.99197 22.3658C1.99197 21.994 2.01853 21.6115 2.07376 21.2218C2.12945 20.8317 2.218 20.3923 2.33917 19.9012L3.70119 15.2276C3.82236 14.7801 3.92536 14.356 4.00785 13.9551C4.09151 13.5566 4.13182 13.1899 4.13182 12.8599C4.13182 12.263 4.00435 11.8455 3.75059 11.6108C3.49683 11.3768 3.01261 11.2579 2.29373 11.2579C1.94164 11.2579 1.57975 11.3126 1.21088 11.4183C0.84037 11.5245 0.523692 11.6271 0.257812 11.7224L0.622027 10.2816C1.51427 9.92938 2.36714 9.62779 3.18295 9.37749C3.99876 9.1265 4.7696 9.0009 5.49873 9.0009C6.80902 9.0009 7.82011 9.30791 8.53013 9.92192C9.24015 10.5364 9.59504 11.3329 9.59504 12.3145C9.59504 12.5176 9.57174 12.8754 9.52164 13.3869C9.4727 13.8995 9.38159 14.3691 9.24877 14.7963L7.89258 19.4512C7.78142 19.825 7.68146 20.2525 7.59454 20.7334C7.50483 21.2112 7.46195 21.5763 7.46195 21.8212C7.46195 22.4392 7.60409 22.8612 7.88908 23.0856C8.17617 23.3099 8.67064 23.4215 9.37297 23.4215C9.7027 23.4215 10.0779 23.3648 10.4947 23.2534C10.9105 23.142 11.2136 23.0442 11.4017 22.9586ZM11.7456 3.41623C11.7456 4.22724 11.4303 4.91988 10.7967 5.48939C10.1648 6.06094 9.40326 6.34693 8.51242 6.34693C7.61877 6.34693 6.85539 6.06094 6.21621 5.48939C5.57819 4.91965 5.25848 4.22724 5.25848 3.41623C5.25848 2.60681 5.57819 1.91304 6.21621 1.3363C6.85423 0.760463 7.61901 0.472656 8.51242 0.472656C9.40303 0.472656 10.1648 0.76114 10.7967 1.3363C11.4308 1.91304 11.7456 2.60703 11.7456 3.41623Z"/>
</svg>
